# xmcd
#
# Track frame offsets: 
#        150
#        13143
#        31513
#        49219
#        67470
#        89992
#        108315
#        125207
#        139859
#        159163
#        177477
#        197570
#
# Disc length: 2850 seconds
#
# Revision: 2
# Processed by: cddbd v1.5.2PL0 Copyright (c) Steve Scherf et al.
# Submitted via: ExactAudioCopy v0.90b4
#
DISCID=b10b200c
DTITLE=The Warren Brothers - Barely Famous Hits
DYEAR=2005
DGENRE=Country
TTITLE0=Change
TTITLE1=What We Can't Have
TTITLE2=Greyhound Bus
TTITLE3=Guilty
TTITLE4=Come Back
TTITLE5=Where Does It Hurt
TTITLE6=Waiting For The Light To Change
TTITLE7=Move On
TTITLE8=Hey Mr. President
TTITLE9=Sell A Lot Of Beer
TTITLE10=King Of Nothing
TTITLE11=That's The Beat Of The Heart (feat. Sara Evans)
EXTD=
EXTT0=
EXTT1=
EXTT2=
EXTT3=
EXTT4=
EXTT5=
EXTT6=
EXTT7=
EXTT8=
EXTT9=
EXTT10=
EXTT11=
PLAYORDER=
